<svg width="1200" height="280" viewBox="0 0 1200 280" xmlns="http://www.w3.org/2000/svg" role="img" aria-labelledby="title desc">
  <title id="title">Liminal HQ CI Infrastructure</title>
  <desc id="desc">Animated banner showing shared desktop and mobile CI images flowing into repository pipelines.</desc>
  <defs>
    <linearGradient id="bg" x1="0" y1="0" x2="1" y2="1">
      <stop offset="0%" stop-color="#0a1f44"/>
      <stop offset="100%" stop-color="#153b73"/>
    </linearGradient>
    <linearGradient id="beam" x1="0" y1="0" x2="1" y2="0">
      <stop offset="0%" stop-color="#6ee7ff" stop-opacity="0"/>
      <stop offset="40%" stop-color="#6ee7ff" stop-opacity="0.8"/>
      <stop offset="100%" stop-color="#6ee7ff" stop-opacity="0"/>
    </linearGradient>
    <filter id="glow" x="-50%" y="-50%" width="200%" height="200%">
      <feGaussianBlur stdDeviation="4" result="blur"/>
      <feMerge>
        <feMergeNode in="blur"/>
        <feMergeNode in="SourceGraphic"/>
      </feMerge>
    </filter>
  </defs>

  <rect width="1200" height="280" rx="18" fill="url(#bg)"/>

  <g opacity="0.18">
    <circle cx="140" cy="230" r="120" fill="#6ee7ff"/>
    <circle cx="980" cy="40" r="100" fill="#7df9d6"/>
  </g>

  <g filter="url(#glow)">
    <rect x="80" y="80" width="210" height="120" rx="14" fill="#0f2b57" stroke="#6ee7ff"/>
    <text x="102" y="124" fill="#d9faff" font-size="26" font-family="monospace">desktop</text>
    <text x="102" y="156" fill="#8cc7ff" font-size="16" font-family="monospace">linux/amd64 + arm64</text>

    <rect x="80" y="210" width="210" height="52" rx="12" fill="#0f2b57" stroke="#7df9d6"/>
    <text x="102" y="242" fill="#d9faff" font-size="24" font-family="monospace">mobile</text>

    <rect x="850" y="110" width="300" height="110" rx="14" fill="#0f2b57" stroke="#ffd58a"/>
    <text x="878" y="150" fill="#fff2d1" font-size="22" font-family="monospace">repo CI</text>
    <text x="878" y="178" fill="#ffd58a" font-size="14" font-family="monospace">threshold / notes / plugins</text>
  </g>

  <g>
    <path d="M300 140 C520 140, 700 160, 920 160" stroke="url(#beam)" stroke-width="10" fill="none"/>
    <path d="M300 235 C520 230, 700 210, 920 190" stroke="url(#beam)" stroke-width="8" fill="none"/>

    <rect x="270" y="132" width="80" height="16" rx="8" fill="#6ee7ff">
      <animate attributeName="x" values="270;860;270" dur="5s" repeatCount="indefinite"/>
    </rect>

    <rect x="290" y="227" width="64" height="14" rx="7" fill="#7df9d6">
      <animate attributeName="x" values="290;850;290" dur="4.3s" repeatCount="indefinite"/>
    </rect>
  </g>

  <text x="72" y="48" fill="#e8f4ff" font-size="28" font-family="monospace">Liminal HQ shared CI image infrastructure</text>
</svg>
